<svg width="58" height="57" viewBox="0 0 58 57" fill="none" xmlns="http://www.w3.org/2000/svg">
<rect x="0.760986" y="0.260864" width="56.4782" height="56.4782" rx="28.2391" fill="url(#paint0_linear_5_5548)"/>
<path fill-rule="evenodd" clip-rule="evenodd" d="M40.6231 22.5444C41.5372 22.5444 42.4106 22.9366 43.0193 23.6199C43.6269 24.3043 43.915 25.2184 43.8077 26.1273L42.1295 40.1397C41.9385 41.7514 40.5699 42.969 38.9449 42.969H35.2756V33.7295H32.5646L29.5164 40.3401L26.4817 33.7295H23.7707V42.969H20.2883C18.6633 42.969 17.2947 41.7515 17.1037 40.1377L15.4256 26.1294C15.3184 25.2184 15.6063 24.3043 16.2141 23.621C16.8228 22.9366 17.6961 22.5444 18.6113 22.5444H40.6231ZM26.4548 42.969H28.2446L26.4548 39.2674V42.969ZM30.8017 42.969H32.5916V39.2674L30.8017 42.969Z" fill="#CDFF65"/>
<path d="M35.537 28.8197C34.959 28.8197 34.4912 28.3519 34.4912 27.7739V20.9602C34.4912 18.2934 32.3207 16.1229 29.6539 16.1229C26.9871 16.1229 24.8166 18.2934 24.8166 20.9602V27.7737C24.8166 28.3518 24.3488 28.8196 23.7707 28.8196C23.1927 28.8196 22.7249 28.3518 22.7249 27.7737V20.9602C22.7249 17.1392 25.8329 14.0311 29.6539 14.0311C33.4749 14.0311 36.5829 17.1392 36.5829 20.9602V27.7737C36.5829 28.3519 36.1151 28.8197 35.537 28.8197Z" fill="#EBF3EA"/>
<defs>
<linearGradient id="paint0_linear_5_5548" x1="29.0001" y1="0.260864" x2="48.5503" y2="68.1434" gradientUnits="userSpaceOnUse">
<stop stop-color="#161919"/>
<stop offset="1" stop-color="#5B5C7A"/>
</linearGradient>
</defs>
</svg>
